<svg width="54" height="54" viewBox="0 0 54 54" fill="none" xmlns="http://www.w3.org/2000/svg">
<path fill-rule="evenodd" clip-rule="evenodd" d="M24.7706 53.3727C40.2295 53.3727 54 44.9507 54 30.5837C54 16.2168 48.716 3.33604 30.3857 0.363543C12.0554 -2.60895 -7.92513e-05 13.2443 3.90741e-10 26.125C7.92607e-05 39.0057 9.3117 53.3727 24.7706 53.3727ZM27.9908 48.4186C38.7984 48.4186 47.5596 39.6573 47.5596 28.8498C47.5596 18.0422 38.7984 9.28098 27.9908 9.28098C17.1833 9.28098 8.42202 18.0422 8.42202 28.8498C8.42202 39.6573 17.1833 48.4186 27.9908 48.4186Z" fill="white"/>
<mask id="mask0" mask-type="alpha" maskUnits="userSpaceOnUse" x="3" y="3" width="49" height="49">
<path fill-rule="evenodd" clip-rule="evenodd" d="M3.63335 3.83144H51.193V51.3911H3.63335V3.83144ZM18.2319 17.145V15.2575H22.869V12.7309H15.5418V23.2535H18.2319V19.627H22.2893V17.145H18.2319ZM33.998 15.2278V16.8626H38.2635V19.1663H33.998V20.7417H38.6351V23.2535H31.3079V12.7309H38.6351V15.2278H33.998ZM19.0377 32.052H15.0991V42.5746H19.0377C21.1481 42.5894 23.1248 41.5342 23.1248 39.1116V35.5744C23.1248 33.1221 21.1481 32.052 19.0377 32.052ZM19.1268 40.0777H17.7743V34.534H19.1268C20.0186 34.534 20.4496 34.965 20.4496 35.6487V38.9333C20.4496 39.6169 20.0334 40.0777 19.1268 40.0777ZM39.8642 37.3536L31.3424 32.4335V42.2737L39.8642 37.3536Z" fill="white"/>
</mask>
<g mask="url(#mask0)">
<circle cx="27.1655" cy="27.3635" r="23.5321" fill="white"/>
</g>
</svg>
