<svg xmlns="http://www.w3.org/2000/svg" width="32" height="32" fill="none" viewBox="0 0 32 32"><path fill="#fff" d="M29.854 8.36a15.93 15.93 0 0 0-5.823-5.823C21.579 1.107 18.903.392 16 .392c-2.903 0-5.58.715-8.031 2.145A15.928 15.928 0 0 0 2.146 8.36C.716 10.812 0 13.488 0 16.39c0 3.487 1.017 6.622 3.052 9.407s4.663 4.712 7.885 5.78c.375.07.653.021.833-.145a.815.815 0 0 0 .271-.625l-.01-1.124a184.84 184.84 0 0 1-.01-1.854l-.48.083c-.306.056-.691.08-1.156.073a8.813 8.813 0 0 1-1.448-.146c-.5-.09-.965-.298-1.396-.625a2.643 2.643 0 0 1-.916-1.28l-.209-.48a5.206 5.206 0 0 0-.656-1.063c-.299-.389-.6-.652-.906-.791l-.146-.105a1.53 1.53 0 0 1-.27-.25 1.142 1.142 0 0 1-.188-.292c-.042-.097-.007-.177.104-.24.111-.062.312-.093.604-.093l.417.063c.277.055.621.222 1.03.5.41.277.747.638 1.011 1.083.32.57.705 1.003 1.156 1.302.452.298.907.448 1.365.448.458 0 .854-.035 1.187-.104a4.14 4.14 0 0 0 .938-.313c.125-.93.465-1.646 1.02-2.146a14.263 14.263 0 0 1-2.135-.375 8.503 8.503 0 0 1-1.958-.813 5.61 5.61 0 0 1-1.677-1.395c-.444-.556-.81-1.285-1.094-2.188-.284-.903-.427-1.944-.427-3.125 0-1.68.549-3.111 1.646-4.292-.514-1.263-.465-2.68.146-4.25.403-.124 1-.03 1.792.282.791.312 1.371.58 1.74.802.367.222.662.41.885.563a14.793 14.793 0 0 1 4-.542c1.375 0 2.708.18 4 .542l.791-.5c.542-.334 1.181-.64 1.917-.917.736-.278 1.299-.354 1.688-.229.625 1.57.68 2.986.166 4.25 1.097 1.18 1.646 2.61 1.646 4.291 0 1.18-.143 2.226-.427 3.135-.284.91-.652 1.64-1.104 2.188a5.824 5.824 0 0 1-1.687 1.385 8.52 8.52 0 0 1-1.959.813c-.632.167-1.343.292-2.135.375.722.625 1.083 1.611 1.083 2.959v4.395c0 .25.087.458.26.625.174.166.448.215.823.145 3.223-1.069 5.851-2.996 7.886-5.78C30.982 23.011 32 19.876 32 16.39c0-2.902-.717-5.579-2.146-8.03z"/></svg>