<svg xmlns="http://www.w3.org/2000/svg" width="67" height="44" fill="none" viewBox="0 0 67 44"><path fill="#fff" fill-rule="evenodd" d="M0 41a3 3 0 0 0 3 3h15a3 3 0 0 0 3-3V26a3 3 0 0 0-3-3H3a3 3 0 0 0-3 3v15zm13-11.464L7 33l6 3.464v-6.928zM67 41a3 3 0 0 1-3 3H49a3 3 0 0 1-3-3V26a3 3 0 0 1 3-3h15a3 3 0 0 1 3 3v15zM54 29.536L60 33l-6 3.464v-6.928z" clip-rule="evenodd"/><path fill="#fff" fill-opacity=".2" fill-rule="evenodd" d="M41 44a3 3 0 0 0 3-3V26a3 3 0 0 0-3-3H26a3 3 0 0 0-3 3v15a3 3 0 0 0 3 3h15zM29.536 31L33 37l3.464-6h-6.928zM26 0a3 3 0 0 0-3 3v15a3 3 0 0 0 3 3h15a3 3 0 0 0 3-3V3a3 3 0 0 0-3-3H26zm11.464 13L34 7l-3.464 6h6.928z" clip-rule="evenodd"/></svg>