<svg xmlns="http://www.w3.org/2000/svg" width="141" height="78" fill="none" viewBox="0 0 141 78"><path fill="#fff" d="M6.162 9.314V6.012h8.112v-4.42H1.456V20h4.706v-6.344h7.098V9.314H6.162zm15.813 4.836L26.237 20h5.798l-5.018-6.318c2.236-.702 3.614-2.626 3.614-6.032-.104-4.316-3.042-6.058-6.838-6.058h-7.358V20h4.706v-5.85h.832zm1.897-4.004h-2.73V5.934h2.73c2.939 0 2.939 4.212 0 4.212zm8.779-2.496v6.292c0 4.212 3.822 6.318 7.644 6.318s7.618-2.106 7.618-6.318V7.65c0-4.212-3.822-6.318-7.644-6.318S32.65 3.412 32.65 7.65zm4.654 6.292V7.65c0-1.352 1.456-2.08 2.912-2.08 1.508 0 3.042.65 3.042 2.08v6.292c0 1.326-1.482 2.002-2.964 2.002s-2.99-.65-2.99-2.002zm13.079-12.35V20h4.654v-7.358L54.44 9.08l.13-.026 1.612 3.692L60.342 20h4.706V1.592H60.42v8.346c.026 0 .494 3.172.52 3.172l-.13.026-1.56-3.692-4.446-7.852h-4.42zm26.072 4.394h4.888v-4.42H66.862v4.42h4.888V20h4.706V5.986zm13.137 8.684v-4.42h-8.112v4.42h8.112zm7.366-5.85V5.96h8.112V1.592H92.253V20h12.818v-4.394h-8.112V12.85h7.462V8.82h-7.462zm10.579-7.228V20h4.654v-7.358l-.598-3.562.13-.026 1.612 3.692 4.16 7.254h4.706V1.592h-4.628v8.346c.026 0 .494 3.172.52 3.172l-.13.026-1.56-3.692-4.446-7.852h-4.42zm24.46 0h-6.89V20h6.89c3.692.026 7.15-1.82 7.15-6.058V7.754c0-4.29-3.458-6.162-7.15-6.162zm.156 14.04h-2.366V5.934h2.366c1.56 0 2.314.754 2.314 1.95v5.746c0 1.196-.728 2.002-2.314 2.002zM1.456 27.592V46H6.11v-5.304l-.312-3.718.13-.026 2.47 6.318h3.198l2.418-6.318.156.026-.286 3.718L13.858 46h4.68V27.592h-4.654l-3.9 8.996-3.874-8.996H1.456zM37.064 46l-6.578-18.408h-4.238L19.826 46h4.992l1.144-3.692h4.914L32.072 46h4.992zm-7.306-7.826h-2.756l1.352-5.382h.13l1.274 5.382zm10.314 2.002l-2.938 2.756c1.716 2.21 4.056 3.328 6.267 3.328 3.38 0 7.123-1.95 7.28-5.512.208-4.524-3.069-5.668-6.344-6.266-1.43-.312-2.393-.832-2.445-1.716.078-2.132 3.38-2.21 5.304-.156l3.043-2.34c-1.898-2.314-4.056-2.938-6.292-2.938-3.38 0-6.657 1.898-6.657 5.512 0 3.51 2.705 5.382 5.669 5.85 1.508.208 3.197.806 3.145 1.846-.13 1.976-4.185 1.872-6.032-.364zm21.124-8.19h4.888v-4.42H51.602v4.42h4.888V46h4.706V31.986zM72.61 34.82v-2.86h8.112v-4.368H67.903V46h12.818v-4.394H72.61V38.85h7.462v-4.03H72.61zm16.117 5.33L92.99 46h5.798l-5.018-6.318c2.236-.702 3.614-2.626 3.614-6.032-.104-4.316-3.042-6.058-6.838-6.058h-7.358V46h4.706v-5.85h.832zm1.898-4.004h-2.73v-4.212h2.73c2.938 0 2.938 4.212 0 4.212zm11.427 4.03l-2.938 2.756c1.716 2.21 4.056 3.328 6.266 3.328 3.38 0 7.124-1.95 7.28-5.512.208-4.524-3.068-5.668-6.344-6.266-1.43-.312-2.392-.832-2.444-1.716.078-2.132 3.38-2.21 5.304-.156l3.042-2.34c-1.898-2.314-4.056-2.938-6.292-2.938-3.38 0-6.656 1.898-6.656 5.512 0 3.51 2.704 5.382 5.668 5.85 1.508.208 3.198.806 3.146 1.846-.13 1.976-4.186 1.872-6.032-.364zM1.456 53.592V72h12.168v-4.602H6.136V53.592h-4.68zm18.722 7.228v-2.86h8.112v-4.368H15.472V72H28.29v-4.394h-8.112V64.85h7.462v-4.03h-7.462zM46.383 72l-6.578-18.408h-4.238L29.145 72h4.992l1.144-3.692h4.914L41.39 72h4.992zm-7.306-7.826H36.32l1.352-5.382h.13l1.274 5.382zm17.39-5.122l3.9-1.794c-1.273-2.938-4.003-3.926-6.395-3.926-3.64 0-7.28 2.08-7.28 6.24v6.318c0 4.238 3.64 6.37 7.28 6.37 3.692 0 7.228-2.132 7.228-6.37v-4.576h-7.41v3.9h2.938v.676c0 2.86-5.382 2.886-5.382 0v-6.318c0-2.418 4.108-2.99 5.122-.52zm11.493 6.786V53.592h-4.706v12.246c-.026 8.632 14.664 8.632 14.69 0V53.592h-4.706v12.246c-.026 2.964-5.278 2.964-5.278 0zm17.446-5.018v-2.86h8.112v-4.368H80.7V72h12.818v-4.394h-8.112V64.85h7.462v-4.03h-7.462z"/></svg>