<svg xmlns="http://www.w3.org/2000/svg" width="139" height="71" fill="none" viewBox="0 0 139 71"><path fill="#fff" d="M5.162 7.982V4.68h8.112V.26H.456v18.408h4.706v-6.344h7.098V7.982H5.162zm15.812 4.836l4.264 5.85h5.799l-5.018-6.318c2.236-.702 3.614-2.626 3.614-6.032C29.529 2.002 26.59.26 22.794.26h-7.359v18.408h4.706v-5.85h.832zm1.898-4.004h-2.73V4.602h2.73c2.939 0 2.939 4.212 0 4.212zm8.778-2.496v6.292c0 4.212 3.823 6.318 7.645 6.318 3.822 0 7.618-2.106 7.618-6.318V6.318C46.913 2.106 43.09 0 39.269 0S31.65 2.08 31.65 6.318zm4.655 6.292V6.318c0-1.352 1.456-2.08 2.912-2.08 1.508 0 3.042.65 3.042 2.08v6.292c0 1.326-1.482 2.002-2.964 2.002s-2.99-.65-2.99-2.002zM49.384.26v18.408h4.654V11.31l-.598-3.562.13-.026 1.612 3.692 4.16 7.254h4.706V.26H59.42v8.346c.026 0 .494 3.172.52 3.172l-.13.026-1.56-3.692L53.804.26h-4.42zm26.072 4.394h4.888V.234H65.862v4.42h4.888v14.014h4.706V4.654zm13.137 8.684v-4.42h-8.112v4.42h8.112zm7.366-5.85v-2.86h8.112V.26H91.253v18.408h12.818v-4.394h-8.112v-2.756h7.462v-4.03h-7.462zM106.538.26v18.408h4.654V11.31l-.598-3.562.13-.026 1.612 3.692 4.16 7.254h4.706V.26h-4.628v8.346c.026 0 .494 3.172.52 3.172l-.13.026-1.56-3.692L110.958.26h-4.42zm24.46 0h-6.89v18.408h6.89c3.692.026 7.15-1.82 7.15-6.058V6.422c0-4.29-3.458-6.162-7.15-6.162zm.156 14.04h-2.366V4.602h2.366c1.56 0 2.314.754 2.314 1.95v5.746c0 1.196-.728 2.002-2.314 2.002zM.456 26.26v18.408H5.11v-5.304l-.312-3.718.13-.026 2.47 6.318h3.198l2.418-6.318.156.026-.286 3.718-.026 5.304h4.68V26.26h-4.654l-3.9 8.996L5.11 26.26H.456zm35.609 18.408L29.487 26.26h-4.238l-6.422 18.408h4.991l1.144-3.692h4.915l1.196 3.692h4.992zm-7.306-7.826h-2.756l1.352-5.382h.13l1.274 5.382zm10.314 2.002L36.135 41.6c1.716 2.21 4.056 3.328 6.266 3.328 3.38 0 7.124-1.95 7.28-5.512.208-4.524-3.068-5.668-6.344-6.266-1.43-.312-2.392-.832-2.444-1.716.078-2.132 3.38-2.21 5.304-.156l3.042-2.34C47.34 26.624 45.183 26 42.947 26c-3.38 0-6.656 1.898-6.656 5.512 0 3.51 2.704 5.382 5.668 5.85 1.508.208 3.198.806 3.146 1.846-.13 1.976-4.186 1.872-6.032-.364zm21.123-8.19h4.888v-4.42H50.602v4.42h4.888v14.014h4.706V30.654zm11.414 2.834v-2.86h8.111V26.26H66.903v18.408h12.818v-4.394H71.61v-2.756h7.462v-4.03H71.61zm16.117 5.33l4.263 5.85h5.799L92.77 38.35c2.237-.702 3.615-2.626 3.615-6.032-.105-4.316-3.043-6.058-6.839-6.058h-7.358v18.408h4.706v-5.85h.832zm1.897-4.004h-2.73v-4.212h2.73c2.939 0 2.939 4.212 0 4.212zm11.427 4.03L98.113 41.6c1.716 2.21 4.056 3.328 6.266 3.328 3.38 0 7.124-1.95 7.28-5.512.208-4.524-3.068-5.668-6.344-6.266-1.43-.312-2.392-.832-2.444-1.716.078-2.132 3.38-2.21 5.304-.156l3.042-2.34c-1.898-2.314-4.056-2.938-6.292-2.938-3.38 0-6.656 1.898-6.656 5.512 0 3.51 2.704 5.382 5.668 5.85 1.508.208 3.198.806 3.146 1.846-.13 1.976-4.186 1.872-6.032-.364zM.456 52.26v18.408h12.168v-4.602H5.136V52.26H.456zm18.722 7.228v-2.86h8.112V52.26H14.472v18.408H27.29v-4.394h-8.112v-2.756h7.462v-4.03h-7.462zm26.205 11.18L38.805 52.26h-4.238l-6.422 18.408h4.992l1.144-3.692h4.914l1.196 3.692h4.992zm-7.306-7.826H35.32l1.352-5.382h.13l1.274 5.382zm17.391-5.122l3.9-1.794C58.094 52.988 55.364 52 52.972 52c-3.64 0-7.28 2.08-7.28 6.24v6.318c0 4.238 3.64 6.37 7.28 6.37 3.692 0 7.228-2.132 7.228-6.37v-4.576h-7.41v3.9h2.938v.676c0 2.86-5.382 2.886-5.382 0V58.24c0-2.418 4.108-2.99 5.122-.52zm11.492 6.786V52.26h-4.706v12.246c-.026 8.632 14.664 8.632 14.69 0V52.26h-4.706v12.246c-.026 2.964-5.278 2.964-5.278 0zm17.446-5.018v-2.86h8.112V52.26H79.7v18.408h12.818v-4.394h-8.112v-2.756h7.462v-4.03h-7.462z"/></svg>