<svg width="139" height="72" viewBox="0 0 139 72" fill="none" xmlns="http://www.w3.org/2000/svg">
<path d="M5.162 8.314V5.012H13.274V0.592H0.456V19H5.162V12.656H12.26V8.314H5.162ZM20.9745 13.15L25.2385 19H31.0365L26.0185 12.682C28.2545 11.98 29.6325 10.056 29.6325 6.65C29.5285 2.334 26.5905 0.592 22.7945 0.592H15.4365V19H20.1425V13.15H20.9745ZM22.8725 9.146H20.1425V4.934H22.8725C25.8105 4.934 25.8105 9.146 22.8725 9.146ZM31.6507 6.65V12.942C31.6507 17.154 35.4727 19.26 39.2947 19.26C43.1167 19.26 46.9127 17.154 46.9127 12.942V6.65C46.9127 2.438 43.0907 0.331999 39.2687 0.331999C35.4467 0.331999 31.6507 2.412 31.6507 6.65ZM36.3047 12.942V6.65C36.3047 5.298 37.7607 4.57 39.2167 4.57C40.7247 4.57 42.2587 5.22 42.2587 6.65V12.942C42.2587 14.268 40.7767 14.944 39.2947 14.944C37.8127 14.944 36.3047 14.294 36.3047 12.942ZM49.3837 0.592V19H54.0377V11.642L53.4397 8.08L53.5697 8.054L55.1817 11.746L59.3417 19H64.0477V0.592H59.4197V8.938C59.4457 8.938 59.9137 12.11 59.9397 12.11L59.8097 12.136L58.2497 8.444L53.8037 0.592H49.3837ZM75.456 4.986H80.344V0.565999H65.862V4.986H70.75V19H75.456V4.986ZM88.5932 13.67V9.25H80.4812V13.67H88.5932ZM95.9589 7.82V4.96H104.071V0.592H91.2529V19H104.071V14.606H95.9589V11.85H103.421V7.82H95.9589ZM106.538 0.592V19H111.192V11.642L110.594 8.08L110.724 8.054L112.336 11.746L116.496 19H121.202V0.592H116.574V8.938C116.6 8.938 117.068 12.11 117.094 12.11L116.964 12.136L115.404 8.444L110.958 0.592H106.538ZM130.998 0.592H124.108V19H130.998C134.69 19.026 138.148 17.18 138.148 12.942V6.754C138.148 2.464 134.69 0.592 130.998 0.592ZM131.154 14.632H128.788V4.934H131.154C132.714 4.934 133.468 5.688 133.468 6.884V12.63C133.468 13.826 132.74 14.632 131.154 14.632ZM0.456 26.592V45H5.11V39.696L4.798 35.978L4.928 35.952L7.398 42.27H10.596L13.014 35.952L13.17 35.978L12.884 39.696L12.858 45H17.538V26.592H12.884L8.984 35.588L5.11 26.592H0.456ZM36.0644 45L29.4864 26.592H25.2484L18.8264 45H23.8184L24.9624 41.308H29.8764L31.0724 45H36.0644ZM28.7584 37.174H26.0024L27.3544 31.792H27.4844L28.7584 37.174ZM39.0725 39.176L36.1345 41.932C37.8505 44.142 40.1905 45.26 42.4005 45.26C45.7805 45.26 49.5245 43.31 49.6805 39.748C49.8885 35.224 46.6125 34.08 43.3365 33.482C41.9065 33.17 40.9445 32.65 40.8925 31.766C40.9705 29.634 44.2725 29.556 46.1965 31.61L49.2385 29.27C47.3405 26.956 45.1825 26.332 42.9465 26.332C39.5665 26.332 36.2905 28.23 36.2905 31.844C36.2905 35.354 38.9945 37.226 41.9585 37.694C43.4665 37.902 45.1565 38.5 45.1045 39.54C44.9745 41.516 40.9185 41.412 39.0725 39.176ZM60.1963 30.986H65.0843V26.566H50.6023V30.986H55.4903V45H60.1963V30.986ZM71.6093 33.82V30.96H79.7213V26.592H66.9033V45H79.7213V40.606H71.6093V37.85H79.0713V33.82H71.6093ZM87.7264 39.15L91.9904 45H97.7884L92.7704 38.682C95.0064 37.98 96.3844 36.056 96.3844 32.65C96.2804 28.334 93.3424 26.592 89.5464 26.592H82.1884V45H86.8944V39.15H87.7264ZM89.6244 35.146H86.8944V30.934H89.6244C92.5624 30.934 92.5624 35.146 89.6244 35.146ZM101.051 39.176L98.113 41.932C99.829 44.142 102.169 45.26 104.379 45.26C107.759 45.26 111.503 43.31 111.659 39.748C111.867 35.224 108.591 34.08 105.315 33.482C103.885 33.17 102.923 32.65 102.871 31.766C102.949 29.634 106.251 29.556 108.175 31.61L111.217 29.27C109.319 26.956 107.161 26.332 104.925 26.332C101.545 26.332 98.269 28.23 98.269 31.844C98.269 35.354 100.973 37.226 103.937 37.694C105.445 37.902 107.135 38.5 107.083 39.54C106.953 41.516 102.897 41.412 101.051 39.176ZM0.456 52.592V71H12.624V66.398H5.136V52.592H0.456ZM19.1776 59.82V56.96H27.2896V52.592H14.4716V71H27.2896V66.606H19.1776V63.85H26.6396V59.82H19.1776ZM45.3828 71L38.8048 52.592H34.5668L28.1448 71H33.1368L34.2808 67.308H39.1948L40.3908 71H45.3828ZM38.0768 63.174H35.3208L36.6728 57.792H36.8028L38.0768 63.174ZM55.4677 58.052L59.3677 56.258C58.0937 53.32 55.3637 52.332 52.9717 52.332C49.3317 52.332 45.6917 54.412 45.6917 58.572V64.89C45.6917 69.128 49.3317 71.26 52.9717 71.26C56.6637 71.26 60.1997 69.128 60.1997 64.89V60.314H52.7897V64.214H55.7277V64.89C55.7277 67.75 50.3457 67.776 50.3457 64.89V58.572C50.3457 56.154 54.4537 55.582 55.4677 58.052ZM66.9603 64.838V52.592H62.2543V64.838C62.2283 73.47 76.9183 73.47 76.9443 64.838V52.592H72.2383V64.838C72.2123 67.802 66.9603 67.802 66.9603 64.838ZM84.4061 59.82V56.96H92.5181V52.592H79.7001V71H92.5181V66.606H84.4061V63.85H91.8681V59.82H84.4061Z" fill="white"/>
</svg>
