<svg class="a11y-hidden">
  <symbol id="github" viewBox="0 0 32 32">
    <path fill="#fff" d="M29.854 8.36a15.93 15.93 0 0 0-5.823-5.823C21.579 1.107 18.903.392 16 .392c-2.903 0-5.58.715-8.031 2.145A15.928 15.928 0 0 0 2.146 8.36C.716 10.812 0 13.488 0 16.39c0 3.487 1.017 6.622 3.052 9.407s4.663 4.712 7.885 5.78c.375.07.653.021.833-.145a.815.815 0 0 0 .271-.625l-.01-1.124a184.84 184.84 0 0 1-.01-1.854l-.48.083c-.306.056-.691.08-1.156.073a8.813 8.813 0 0 1-1.448-.146c-.5-.09-.965-.298-1.396-.625a2.643 2.643 0 0 1-.916-1.28l-.209-.48a5.206 5.206 0 0 0-.656-1.063c-.299-.389-.6-.652-.906-.791l-.146-.105a1.53 1.53 0 0 1-.27-.25 1.142 1.142 0 0 1-.188-.292c-.042-.097-.007-.177.104-.24.111-.062.312-.093.604-.093l.417.063c.277.055.621.222 1.03.5.41.277.747.638 1.011 1.083.32.57.705 1.003 1.156 1.302.452.298.907.448 1.365.448.458 0 .854-.035 1.187-.104a4.14 4.14 0 0 0 .938-.313c.125-.93.465-1.646 1.02-2.146a14.263 14.263 0 0 1-2.135-.375 8.503 8.503 0 0 1-1.958-.813 5.61 5.61 0 0 1-1.677-1.395c-.444-.556-.81-1.285-1.094-2.188-.284-.903-.427-1.944-.427-3.125 0-1.68.549-3.111 1.646-4.292-.514-1.263-.465-2.68.146-4.25.403-.124 1-.03 1.792.282.791.312 1.371.58 1.74.802.367.222.662.41.885.563a14.793 14.793 0 0 1 4-.542c1.375 0 2.708.18 4 .542l.791-.5c.542-.334 1.181-.64 1.917-.917.736-.278 1.299-.354 1.688-.229.625 1.57.68 2.986.166 4.25 1.097 1.18 1.646 2.61 1.646 4.291 0 1.18-.143 2.226-.427 3.135-.284.91-.652 1.64-1.104 2.188a5.824 5.824 0 0 1-1.687 1.385 8.52 8.52 0 0 1-1.959.813c-.632.167-1.343.292-2.135.375.722.625 1.083 1.611 1.083 2.959v4.395c0 .25.087.458.26.625.174.166.448.215.823.145 3.223-1.069 5.851-2.996 7.886-5.78C30.982 23.011 32 19.876 32 16.39c0-2.902-.717-5.579-2.146-8.03z"/>
  </symbol>
  <symbol id="keyboard" viewBox="0 0 67 44">
    <path fill="#fff" fill-rule="evenodd" d="M0 41a3 3 0 0 0 3 3h15a3 3 0 0 0 3-3V26a3 3 0 0 0-3-3H3a3 3 0 0 0-3 3v15zm13-11.464L7 33l6 3.464v-6.928zM67 41a3 3 0 0 1-3 3H49a3 3 0 0 1-3-3V26a3 3 0 0 1 3-3h15a3 3 0 0 1 3 3v15zM54 29.536L60 33l-6 3.464v-6.928z" clip-rule="evenodd"/>
    <path fill="#fff" fill-opacity=".2" fill-rule="evenodd" d="M41 44a3 3 0 0 0 3-3V26a3 3 0 0 0-3-3H26a3 3 0 0 0-3 3v15a3 3 0 0 0 3 3h15zM29.536 31L33 37l3.464-6h-6.928zM26 0a3 3 0 0 0-3 3v15a3 3 0 0 0 3 3h15a3 3 0 0 0 3-3V3a3 3 0 0 0-3-3H26zm11.464 13L34 7l-3.464 6h6.928z" clip-rule="evenodd"/>
  </symbol>
  <symbol id="logo" viewBox="0 0 141 78">
    <path fill="#fff" d="M6.162 9.314V6.012h8.112v-4.42H1.456V20h4.706v-6.344h7.098V9.314H6.162zm15.813 4.836L26.237 20h5.798l-5.018-6.318c2.236-.702 3.614-2.626 3.614-6.032-.104-4.316-3.042-6.058-6.838-6.058h-7.358V20h4.706v-5.85h.832zm1.897-4.004h-2.73V5.934h2.73c2.939 0 2.939 4.212 0 4.212zm8.779-2.496v6.292c0 4.212 3.822 6.318 7.644 6.318s7.618-2.106 7.618-6.318V7.65c0-4.212-3.822-6.318-7.644-6.318S32.65 3.412 32.65 7.65zm4.654 6.292V7.65c0-1.352 1.456-2.08 2.912-2.08 1.508 0 3.042.65 3.042 2.08v6.292c0 1.326-1.482 2.002-2.964 2.002s-2.99-.65-2.99-2.002zm13.079-12.35V20h4.654v-7.358L54.44 9.08l.13-.026 1.612 3.692L60.342 20h4.706V1.592H60.42v8.346c.026 0 .494 3.172.52 3.172l-.13.026-1.56-3.692-4.446-7.852h-4.42zm26.072 4.394h4.888v-4.42H66.862v4.42h4.888V20h4.706V5.986zm13.137 8.684v-4.42h-8.112v4.42h8.112zm7.366-5.85V5.96h8.112V1.592H92.253V20h12.818v-4.394h-8.112V12.85h7.462V8.82h-7.462zm10.579-7.228V20h4.654v-7.358l-.598-3.562.13-.026 1.612 3.692 4.16 7.254h4.706V1.592h-4.628v8.346c.026 0 .494 3.172.52 3.172l-.13.026-1.56-3.692-4.446-7.852h-4.42zm24.46 0h-6.89V20h6.89c3.692.026 7.15-1.82 7.15-6.058V7.754c0-4.29-3.458-6.162-7.15-6.162zm.156 14.04h-2.366V5.934h2.366c1.56 0 2.314.754 2.314 1.95v5.746c0 1.196-.728 2.002-2.314 2.002zM1.456 27.592V46H6.11v-5.304l-.312-3.718.13-.026 2.47 6.318h3.198l2.418-6.318.156.026-.286 3.718L13.858 46h4.68V27.592h-4.654l-3.9 8.996-3.874-8.996H1.456zM37.064 46l-6.578-18.408h-4.238L19.826 46h4.992l1.144-3.692h4.914L32.072 46h4.992zm-7.306-7.826h-2.756l1.352-5.382h.13l1.274 5.382zm10.314 2.002l-2.938 2.756c1.716 2.21 4.056 3.328 6.267 3.328 3.38 0 7.123-1.95 7.28-5.512.208-4.524-3.069-5.668-6.344-6.266-1.43-.312-2.393-.832-2.445-1.716.078-2.132 3.38-2.21 5.304-.156l3.043-2.34c-1.898-2.314-4.056-2.938-6.292-2.938-3.38 0-6.657 1.898-6.657 5.512 0 3.51 2.705 5.382 5.669 5.85 1.508.208 3.197.806 3.145 1.846-.13 1.976-4.185 1.872-6.032-.364zm21.124-8.19h4.888v-4.42H51.602v4.42h4.888V46h4.706V31.986zM72.61 34.82v-2.86h8.112v-4.368H67.903V46h12.818v-4.394H72.61V38.85h7.462v-4.03H72.61zm16.117 5.33L92.99 46h5.798l-5.018-6.318c2.236-.702 3.614-2.626 3.614-6.032-.104-4.316-3.042-6.058-6.838-6.058h-7.358V46h4.706v-5.85h.832zm1.898-4.004h-2.73v-4.212h2.73c2.938 0 2.938 4.212 0 4.212zm11.427 4.03l-2.938 2.756c1.716 2.21 4.056 3.328 6.266 3.328 3.38 0 7.124-1.95 7.28-5.512.208-4.524-3.068-5.668-6.344-6.266-1.43-.312-2.392-.832-2.444-1.716.078-2.132 3.38-2.21 5.304-.156l3.042-2.34c-1.898-2.314-4.056-2.938-6.292-2.938-3.38 0-6.656 1.898-6.656 5.512 0 3.51 2.704 5.382 5.668 5.85 1.508.208 3.198.806 3.146 1.846-.13 1.976-4.186 1.872-6.032-.364zM1.456 53.592V72h12.168v-4.602H6.136V53.592h-4.68zm18.722 7.228v-2.86h8.112v-4.368H15.472V72H28.29v-4.394h-8.112V64.85h7.462v-4.03h-7.462zM46.383 72l-6.578-18.408h-4.238L29.145 72h4.992l1.144-3.692h4.914L41.39 72h4.992zm-7.306-7.826H36.32l1.352-5.382h.13l1.274 5.382zm17.39-5.122l3.9-1.794c-1.273-2.938-4.003-3.926-6.395-3.926-3.64 0-7.28 2.08-7.28 6.24v6.318c0 4.238 3.64 6.37 7.28 6.37 3.692 0 7.228-2.132 7.228-6.37v-4.576h-7.41v3.9h2.938v.676c0 2.86-5.382 2.886-5.382 0v-6.318c0-2.418 4.108-2.99 5.122-.52zm11.493 6.786V53.592h-4.706v12.246c-.026 8.632 14.664 8.632 14.69 0V53.592h-4.706v12.246c-.026 2.964-5.278 2.964-5.278 0zm17.446-5.018v-2.86h8.112v-4.368H80.7V72h12.818v-4.394h-8.112V64.85h7.462v-4.03h-7.462z"/>
  </symbol>
  <symbol id="symbol" viewBox="0 0 49 49">
    <path stroke="#fff" stroke-width="6" d="M3 3h22v22H3z"/>
    <path stroke="#fff" stroke-width="3" d="M33.62 32.79H47.5v13.88H33.62z"/>
  </symbol>
</svg>
